0
SECTION
2
HEADER
0
ENDSEC
0
SECTION
2
ENTITIES
0
LINE
8
A-WALL
10
0
20
0
30
0
11
72
21
0
31
0
0
LINE
8
A-WALL
10
72
20
0
30
0
11
72
21
72
31
0
0
LINE
8
A-WALL
10
72
20
72
30
0
11
0
21
72
31
0
0
LINE
8
A-WALL
10
0
20
72
30
0
11
0
21
0
31
0
0
LINE
8
A-GRID
10
0
20
0
30
0
11
0
21
72
31
0
0
LINE
8
A-GRID
10
0
20
0
30
0
11
72
21
0
31
0
0
LINE
8
A-GRID
10
18
20
0
30
0
11
18
21
72
31
0
0
LINE
8
A-GRID
10
0
20
18
30
0
11
72
21
18
31
0
0
LINE
8
A-GRID
10
36
20
0
30
0
11
36
21
72
31
0
0
LINE
8
A-GRID
10
0
20
36
30
0
11
72
21
36
31
0
0
LINE
8
A-GRID
10
54
20
0
30
0
11
54
21
72
31
0
0
LINE
8
A-GRID
10
0
20
54
30
0
11
72
21
54
31
0
0
LINE
8
A-GRID
10
72
20
0
30
0
11
72
21
72
31
0
0
LINE
8
A-GRID
10
0
20
72
30
0
11
72
21
72
31
0
0
LINE
8
A-WALL
10
0
20
54
30
0
11
12
21
54
31
0
0
LINE
8
A-WALL
10
12
20
54
30
0
11
12
21
72
31
0
0
LINE
8
A-WALL
10
12
20
72
30
0
11
0
21
72
31
0
0
LINE
8
A-WALL
10
0
20
72
30
0
11
0
21
54
31
0
0
LINE
8
A-WALL
10
60
20
54
30
0
11
72
21
54
31
0
0
LINE
8
A-WALL
10
72
20
54
30
0
11
72
21
72
31
0
0
LINE
8
A-WALL
10
72
20
72
30
0
11
60
21
72
31
0
0
LINE
8
A-WALL
10
60
20
72
30
0
11
60
21
54
31
0
0
LINE
8
A-WALL
10
54
20
34
30
0
11
62
21
34
31
0
0
LINE
8
A-WALL
10
62
20
34
30
0
11
62
21
44
31
0
0
LINE
8
A-WALL
10
62
20
44
30
0
11
54
21
44
31
0
0
LINE
8
A-WALL
10
54
20
44
30
0
11
54
21
34
31
0
0
LINE
8
A-WALL
10
12
20
60
30
0
11
20
21
60
31
0
0
LINE
8
A-WALL
10
20
20
60
30
0
11
20
21
70
31
0
0
LINE
8
A-WALL
10
20
20
70
30
0
11
12
21
70
31
0
0
LINE
8
A-WALL
10
12
20
70
30
0
11
12
21
60
31
0
0
LINE
8
A-WALL
10
20
20
60
30
0
11
28
21
60
31
0
0
LINE
8
A-WALL
10
28
20
60
30
0
11
28
21
70
31
0
0
LINE
8
A-WALL
10
28
20
70
30
0
11
20
21
70
31
0
0
LINE
8
A-WALL
10
20
20
70
30
0
11
20
21
60
31
0
0
LINE
8
A-WALL
10
28
20
60
30
0
11
40
21
60
31
0
0
LINE
8
A-WALL
10
40
20
60
30
0
11
40
21
72
31
0
0
LINE
8
A-WALL
10
40
20
72
30
0
11
28
21
72
31
0
0
LINE
8
A-WALL
10
28
20
72
30
0
11
28
21
60
31
0
0
LINE
8
A-WALL
10
40
20
60
30
0
11
50
21
60
31
0
0
LINE
8
A-WALL
10
50
20
60
30
0
11
50
21
72
31
0
0
LINE
8
A-WALL
10
50
20
72
30
0
11
40
21
72
31
0
0
LINE
8
A-WALL
10
40
20
72
30
0
11
40
21
60
31
0
0
LINE
8
A-WALL
10
50
20
60
30
0
11
54
21
60
31
0
0
LINE
8
A-WALL
10
54
20
60
30
0
11
54
21
66
31
0
0
LINE
8
A-WALL
10
54
20
66
30
0
11
50
21
66
31
0
0
LINE
8
A-WALL
10
50
20
66
30
0
11
50
21
60
31
0
0
LINE
8
A-WALL
10
50
20
66
30
0
11
60
21
66
31
0
0
LINE
8
A-WALL
10
60
20
66
30
0
11
60
21
72
31
0
0
LINE
8
A-WALL
10
60
20
72
30
0
11
50
21
72
31
0
0
LINE
8
A-WALL
10
50
20
72
30
0
11
50
21
66
31
0
0
LINE
8
A-WALL
10
24
20
50
30
0
11
48
21
50
31
0
0
LINE
8
A-WALL
10
48
20
50
30
0
11
48
21
54
31
0
0
LINE
8
A-WALL
10
48
20
54
30
0
11
24
21
54
31
0
0
LINE
8
A-WALL
10
24
20
54
30
0
11
24
21
50
31
0
0
CIRCLE
8
A-FURN
10
36
20
39
30
0
40
6
0
CIRCLE
8
A-FURN
10
44.1
20
39
30
0
40
0.8
0
CIRCLE
8
A-FURN
10
41.727564927611034
20
44.727564927611034
30
0
40
0.8
0
CIRCLE
8
A-FURN
10
36
20
47.1
30
0
40
0.8
0
CIRCLE
8
A-FURN
10
30.272435072388966
20
44.727564927611034
30
0
40
0.8
0
CIRCLE
8
A-FURN
10
27.9
20
39
30
0
40
0.8
0
CIRCLE
8
A-FURN
10
30.272435072388966
20
33.272435072388966
30
0
40
0.8
0
CIRCLE
8
A-FURN
10
36
20
30.9
30
0
40
0.8
0
CIRCLE
8
A-FURN
10
41.727564927611034
20
33.272435072388966
30
0
40
0.8
0
LINE
8
A-FURN
10
2
20
14
30
0
11
18
21
14
31
0
0
LINE
8
A-FURN
10
18
20
14
30
0
11
18
21
30
31
0
0
LINE
8
A-FURN
10
18
20
30
30
0
11
2
21
30
31
0
0
LINE
8
A-FURN
10
2
20
30
30
0
11
2
21
14
31
0
0
LINE
8
A-FURN
10
49
20
24
30
0
11
51
21
24
31
0
0
LINE
8
A-FURN
10
51
20
24
30
0
11
51
21
29
31
0
0
LINE
8
A-FURN
10
51
20
29
30
0
11
49
21
29
31
0
0
LINE
8
A-FURN
10
49
20
29
30
0
11
49
21
24
31
0
0
LINE
8
A-GLAZ
10
0
20
0
30
0
11
72
21
0
31
0
0
LINE
8
A-GLAZ
10
0
20
0
30
0
11
0
21
50
31
0
0
LINE
8
A-GLAZ
10
72
20
0
30
0
11
72
21
50
31
0
0
CIRCLE
8
A-ANNO
10
36
20
28
30
0
40
0.5
0
TEXT
8
A-ANNO
10
2
20
-3
30
0
40
.7
1
FLOOR 2 - NO EXTERIOR DOORS / NO BALCONY / NO TERRACE
0
TEXT
8
A-ANNO
10
2
20
-5
30
0
40
.8
1
SCHEMATIC - NOT FOR CONSTRUCTION
0
ENDSEC
0
EOF