0
SECTION
2
HEADER
0
ENDSEC
0
SECTION
2
ENTITIES
0
LWPOLYLINE
8
A-WALL
90
4
70
1
10
0
20
0
10
72
20
0
10
72
20
72
10
0
20
72
0
LINE
8
A-GRID
10
0
20
0
30
0
11
0
21
72
31
0
0
LINE
8
A-GRID
10
0
20
0
30
0
11
72
21
0
31
0
0
LINE
8
A-GRID
10
18
20
0
30
0
11
18
21
72
31
0
0
LINE
8
A-GRID
10
0
20
18
30
0
11
72
21
18
31
0
0
LINE
8
A-GRID
10
36
20
0
30
0
11
36
21
72
31
0
0
LINE
8
A-GRID
10
0
20
36
30
0
11
72
21
36
31
0
0
LINE
8
A-GRID
10
54
20
0
30
0
11
54
21
72
31
0
0
LINE
8
A-GRID
10
0
20
54
30
0
11
72
21
54
31
0
0
LINE
8
A-GRID
10
72
20
0
30
0
11
72
21
72
31
0
0
LINE
8
A-GRID
10
0
20
72
30
0
11
72
21
72
31
0
0
LWPOLYLINE
8
A-WALL
90
4
70
1
10
2
20
4
10
15
20
4
10
15
20
16
10
2
20
16
0
TEXT
8
A-ANNO
10
8.5
20
10
30
0
40
0.45
1
CREATOR RECORDING
0
LWPOLYLINE
8
A-WALL
90
4
70
1
10
17
20
4
10
31
20
4
10
31
20
16
10
17
20
16
0
TEXT
8
A-ANNO
10
24
20
10
30
0
40
0.45
1
EDIT/REVIEW
0
LWPOLYLINE
8
A-CORE
90
4
70
1
10
0
20
54
10
12
20
54
10
12
20
72
10
0
20
72
0
TEXT
8
A-ANNO
10
6
20
63
30
0
40
0.45
1
STAIR B
0
LWPOLYLINE
8
A-WALL
90
4
70
1
10
12
20
60
10
20
20
60
10
20
20
70
10
12
20
70
0
TEXT
8
A-ANNO
10
16
20
65
30
0
40
0.45
1
RESTROOM A
0
LWPOLYLINE
8
A-WALL
90
4
70
1
10
20
20
60
10
28
20
60
10
28
20
70
10
20
20
70
0
TEXT
8
A-ANNO
10
24
20
65
30
0
40
0.45
1
RESTROOM B
0
LWPOLYLINE
8
A-WALL
90
4
70
1
10
28
20
60
10
40
20
60
10
40
20
72
10
28
20
72
0
TEXT
8
A-ANNO
10
34
20
66
30
0
40
0.45
1
MEDIA EQUIPMENT/STORAGE
0
LWPOLYLINE
8
A-WALL
90
4
70
1
10
40
20
60
10
50
20
60
10
50
20
72
10
40
20
72
0
TEXT
8
A-ANNO
10
45
20
66
30
0
40
0.45
1
MEDIA/MUSIC IT
0
LWPOLYLINE
8
A-WALL
90
4
70
1
10
50
20
60
10
54
20
60
10
54
20
66
10
50
20
66
0
TEXT
8
A-ANNO
10
52
20
63
30
0
40
0.45
1
JANITOR
0
LWPOLYLINE
8
A-WALL
90
4
70
1
10
50
20
66
10
60
20
66
10
60
20
72
10
50
20
72
0
TEXT
8
A-ANNO
10
55
20
69
30
0
40
0.45
1
MEP/RISERS
0
LWPOLYLINE
8
A-CORE
90
4
70
1
10
60
20
54
10
72
20
54
10
72
20
72
10
60
20
72
0
TEXT
8
A-ANNO
10
66
20
63
30
0
40
0.45
1
STAIR A
0
LWPOLYLINE
8
A-CORE
90
4
70
1
10
54
20
34
10
62
20
34
10
62
20
44
10
54
20
44
0
TEXT
8
A-ANNO
10
58
20
39
30
0
40
0.45
1
ELEVATOR
0
LWPOLYLINE
8
A-WALL
90
4
70
1
10
22
20
50
10
50
20
50
10
50
20
54
10
22
20
54
0
TEXT
8
A-ANNO
10
36
20
52
30
0
40
0.45
1
MEDIA WALL
0
LWPOLYLINE
8
A-FURN
90
4
70
1
10
2
20
18
10
18
20
18
10
18
20
38
10
2
20
38
0
TEXT
8
A-ANNO
10
4
20
37
30
0
40
0.45
1
CULTURE ARCHIVE / RALLY GALLERY
0
LWPOLYLINE
8
A-FURN
90
4
70
1
10
24
20
28
10
48
20
28
10
48
20
50
10
24
20
50
0
TEXT
8
A-ANNO
10
30
20
47
30
0
40
0.45
1
LISTENING / SCREENING
0
LWPOLYLINE
8
A-FURN
90
4
70
1
10
49
20
24
10
51
20
24
10
51
20
29
10
49
20
29
0
TEXT
8
A-ANNO
10
49
20
23
30
0
40
0.4
1
MEDIA CONTROL
0
LINE
8
A-GLAZ
10
0
20
0
30
0
11
72
21
0
31
0
0
CIRCLE
8
A-ANNO
10
36
20
28
30
0
40
0.5
0
TEXT
8
A-ANNO
10
36.8
20
28
30
0
40
0.45
1
360 CAMERA
0
TEXT
8
A-ANNO
10
2
20
-3
30
0
40
0.65
1
FLOOR 4 - NO EXTERIOR DOORS / NO BALCONY / NO TERRACE
0
TEXT
8
A-ANNO
10
2
20
-5
30
0
40
0.75
1
SCHEMATIC - NOT FOR CONSTRUCTION
0
ENDSEC
0
EOF