0
SECTION
2
HEADER
0
ENDSEC
0
SECTION
2
TABLES
0
TABLE
2
LAYER
70
5
0
LAYER
2
A-WALL
70
0
62
7
6
CONTINUOUS
0
LAYER
2
A-GRID
70
0
62
8
6
CONTINUOUS
0
LAYER
2
A-CORE
70
0
62
1
6
CONTINUOUS
0
LAYER
2
A-FURN
70
0
62
3
6
CONTINUOUS
0
LAYER
2
A-ANNO
70
0
62
2
6
CONTINUOUS
0
ENDTAB
0
ENDSEC
0
SECTION
2
ENTITIES
0
LINE
8
A-WALL
10
0
20
0
30
0
11
72
21
0
31
0
0
LINE
8
A-WALL
10
72
20
0
30
0
11
72
21
72
31
0
0
LINE
8
A-WALL
10
72
20
72
30
0
11
0
21
72
31
0
0
LINE
8
A-WALL
10
0
20
72
30
0
11
0
21
0
31
0
0
LINE
8
A-GRID
10
0
20
0
30
0
11
0
21
72
31
0
0
LINE
8
A-GRID
10
0
20
0
30
0
11
72
21
0
31
0
0
LINE
8
A-GRID
10
18
20
0
30
0
11
18
21
72
31
0
0
LINE
8
A-GRID
10
0
20
18
30
0
11
72
21
18
31
0
0
LINE
8
A-GRID
10
36
20
0
30
0
11
36
21
72
31
0
0
LINE
8
A-GRID
10
0
20
36
30
0
11
72
21
36
31
0
0
LINE
8
A-GRID
10
54
20
0
30
0
11
54
21
72
31
0
0
LINE
8
A-GRID
10
0
20
54
30
0
11
72
21
54
31
0
0
LINE
8
A-GRID
10
72
20
0
30
0
11
72
21
72
31
0
0
LINE
8
A-GRID
10
0
20
72
30
0
11
72
21
72
31
0
0
LINE
8
A-CORE
10
0
20
54
30
0
11
12
21
54
31
0
0
LINE
8
A-CORE
10
12
20
54
30
0
11
12
21
72
31
0
0
LINE
8
A-CORE
10
12
20
72
30
0
11
0
21
72
31
0
0
LINE
8
A-CORE
10
0
20
72
30
0
11
0
21
54
31
0
0
LINE
8
A-CORE
10
60
20
54
30
0
11
72
21
54
31
0
0
LINE
8
A-CORE
10
72
20
54
30
0
11
72
21
72
31
0
0
LINE
8
A-CORE
10
72
20
72
30
0
11
60
21
72
31
0
0
LINE
8
A-CORE
10
60
20
72
30
0
11
60
21
54
31
0
0
LINE
8
A-CORE
10
54
20
34
30
0
11
62
21
34
31
0
0
LINE
8
A-CORE
10
62
20
34
30
0
11
62
21
44
31
0
0
LINE
8
A-CORE
10
62
20
44
30
0
11
54
21
44
31
0
0
LINE
8
A-CORE
10
54
20
44
30
0
11
54
21
34
31
0
0
LINE
8
A-WALL
10
12
20
60
30
0
11
20
21
60
31
0
0
LINE
8
A-WALL
10
20
20
60
30
0
11
20
21
70
31
0
0
LINE
8
A-WALL
10
20
20
70
30
0
11
12
21
70
31
0
0
LINE
8
A-WALL
10
12
20
70
30
0
11
12
21
60
31
0
0
LINE
8
A-WALL
10
20
20
60
30
0
11
28
21
60
31
0
0
LINE
8
A-WALL
10
28
20
60
30
0
11
28
21
70
31
0
0
LINE
8
A-WALL
10
28
20
70
30
0
11
20
21
70
31
0
0
LINE
8
A-WALL
10
20
20
70
30
0
11
20
21
60
31
0
0
LINE
8
A-WALL
10
28
20
60
30
0
11
40
21
60
31
0
0
LINE
8
A-WALL
10
40
20
60
30
0
11
40
21
72
31
0
0
LINE
8
A-WALL
10
40
20
72
30
0
11
28
21
72
31
0
0
LINE
8
A-WALL
10
28
20
72
30
0
11
28
21
60
31
0
0
LINE
8
A-WALL
10
40
20
60
30
0
11
50
21
60
31
0
0
LINE
8
A-WALL
10
50
20
60
30
0
11
50
21
72
31
0
0
LINE
8
A-WALL
10
50
20
72
30
0
11
40
21
72
31
0
0
LINE
8
A-WALL
10
40
20
72
30
0
11
40
21
60
31
0
0
LINE
8
A-WALL
10
50
20
60
30
0
11
54
21
60
31
0
0
LINE
8
A-WALL
10
54
20
60
30
0
11
54
21
66
31
0
0
LINE
8
A-WALL
10
54
20
66
30
0
11
50
21
66
31
0
0
LINE
8
A-WALL
10
50
20
66
30
0
11
50
21
60
31
0
0
LINE
8
A-WALL
10
50
20
66
30
0
11
60
21
66
31
0
0
LINE
8
A-WALL
10
60
20
66
30
0
11
60
21
72
31
0
0
LINE
8
A-WALL
10
60
20
72
30
0
11
50
21
72
31
0
0
LINE
8
A-WALL
10
50
20
72
30
0
11
50
21
66
31
0
0
LINE
8
A-WALL
10
2
20
4
30
0
11
15
21
4
31
0
0
LINE
8
A-WALL
10
15
20
4
30
0
11
15
21
16
31
0
0
LINE
8
A-WALL
10
15
20
16
30
0
11
2
21
16
31
0
0
LINE
8
A-WALL
10
2
20
16
30
0
11
2
21
4
31
0
0
LINE
8
A-WALL
10
17
20
4
30
0
11
32
21
4
31
0
0
LINE
8
A-WALL
10
32
20
4
30
0
11
32
21
16
31
0
0
LINE
8
A-WALL
10
32
20
16
30
0
11
17
21
16
31
0
0
LINE
8
A-WALL
10
17
20
16
30
0
11
17
21
4
31
0
0
LINE
8
A-WALL
10
22
20
50
30
0
11
50
21
50
31
0
0
LINE
8
A-WALL
10
50
20
50
30
0
11
50
21
54
31
0
0
LINE
8
A-WALL
10
50
20
54
30
0
11
22
21
54
31
0
0
LINE
8
A-WALL
10
22
20
54
30
0
11
22
21
50
31
0
0
LINE
8
A-FURN
10
28
20
38.5
30
0
11
44
21
38.5
31
0
0
LINE
8
A-FURN
10
44
20
38.5
30
0
11
44
21
43.5
31
0
0
LINE
8
A-FURN
10
44
20
43.5
30
0
11
28
21
43.5
31
0
0
LINE
8
A-FURN
10
28
20
43.5
30
0
11
28
21
38.5
31
0
0
LINE
8
A-FURN
10
2
20
18
30
0
11
18
21
18
31
0
0
LINE
8
A-FURN
10
18
20
18
30
0
11
18
21
38
31
0
0
LINE
8
A-FURN
10
18
20
38
30
0
11
2
21
38
31
0
0
LINE
8
A-FURN
10
2
20
38
30
0
11
2
21
18
31
0
0
LINE
8
A-FURN
10
49
20
24
30
0
11
51
21
24
31
0
0
LINE
8
A-FURN
10
51
20
24
30
0
11
51
21
29
31
0
0
LINE
8
A-FURN
10
51
20
29
30
0
11
49
21
29
31
0
0
LINE
8
A-FURN
10
49
20
29
30
0
11
49
21
24
31
0
0
TEXT
8
A-ANNO
10
3
20
63
30
0
40
0.6
1
STAIR B - CONTINUES TO LEVEL 7
0
TEXT
8
A-ANNO
10
62
20
63
30
0
40
0.6
1
STAIR A - CONTINUES TO LEVEL 7
0
TEXT
8
A-ANNO
10
54
20
45
30
0
40
0.45
1
RESERVE ELEVATOR OVERRUN / ROOF SERVICE
0
TEXT
8
A-ANNO
10
28
20
52
30
0
40
0.6
1
NOW
0
TEXT
8
A-ANNO
10
35
20
52
30
0
40
0.6
1
PAST WORK
0
TEXT
8
A-ANNO
10
44
20
52
30
0
40
0.6
1
JOIN
0
TEXT
8
A-ANNO
10
30
20
41
30
0
40
0.6
1
PENTHOUSE COMMAND TABLE
0
TEXT
8
A-ANNO
10
2
20
36
30
0
40
0.6
1
INSTITUTIONAL SALON / JOIN LOUNGE
0
TEXT
8
A-ANNO
10
2
20
14
30
0
40
0.6
1
STRATEGY REVIEW
0
TEXT
8
A-ANNO
10
17
20
14
30
0
40
0.6
1
PARTNER / EXECUTIVE BRIEFING
0
TEXT
8
A-ANNO
10
49
20
29.5
30
0
40
0.45
1
LEVEL 7 ROOF TRANSITION
0
TEXT
8
A-ANNO
10
2
20
-3
30
0
40
0.7
1
NO EXTERIOR DOORS / NO BALCONY / NO TERRACE
0
TEXT
8
A-ANNO
10
2
20
-5
30
0
40
0.8
1
SCHEMATIC - NOT FOR CONSTRUCTION
0
ENDSEC
0
EOF
