# https://github.com/mikedh/trimesh

o B3_PRIME_HEAVY_DEPLOYMENT_HALL
v 0.13000000 -0.23750000 -0.41999999 0.29411765 0.29411765 0.31372549
v 0.13000000 -0.23750000 -0.23999999 0.29411765 0.29411765 0.31372549
v 0.13000000 -0.13249999 -0.41999999 0.29411765 0.29411765 0.31372549
v 0.13000000 -0.13249999 -0.23999999 0.29411765 0.29411765 0.31372549
v 0.58999997 -0.23750000 -0.41999999 0.29411765 0.29411765 0.31372549
v 0.58999997 -0.23750000 -0.23999999 0.29411765 0.29411765 0.31372549
v 0.58999997 -0.13249999 -0.41999999 0.29411765 0.29411765 0.31372549
v 0.58999997 -0.13249999 -0.23999999 0.29411765 0.29411765 0.31372549
f 2 4 1
f 5 2 1
f 1 4 3
f 3 5 1
f 2 8 4
f 6 2 5
f 6 8 2
f 4 8 3
f 7 5 3
f 3 8 7
f 7 6 5
f 8 6 7

o B3_PRIME_HEAVY_STAGING_APRON
v 0.13000000 -0.23750000 -0.47999999 0.39215686 0.39215686 0.41176471
v 0.13000000 -0.23750000 -0.34999999 0.39215686 0.39215686 0.41176471
v 0.13000000 -0.21250001 -0.47999999 0.39215686 0.39215686 0.41176471
v 0.13000000 -0.21250001 -0.34999999 0.39215686 0.39215686 0.41176471
v 0.58999997 -0.23750000 -0.47999999 0.39215686 0.39215686 0.41176471
v 0.58999997 -0.23750000 -0.34999999 0.39215686 0.39215686 0.41176471
v 0.58999997 -0.21250001 -0.47999999 0.39215686 0.39215686 0.41176471
v 0.58999997 -0.21250001 -0.34999999 0.39215686 0.39215686 0.41176471
f 10 12 9
f 13 10 9
f 9 12 11
f 11 13 9
f 10 16 12
f 14 10 13
f 14 16 10
f 12 16 11
f 15 13 11
f 11 16 15
f 15 14 13
f 16 14 15

o B3_PRIME_SOUTH_BLAST_PORTAL
v 0.23999999 -0.23500000 -0.48750001 0.23529412 0.23529412 0.25490196
v 0.23999999 -0.23500000 -0.44250000 0.23529412 0.23529412 0.25490196
v 0.23999999 -0.11500000 -0.48750001 0.23529412 0.23529412 0.25490196
v 0.23999999 -0.11500000 -0.44250000 0.23529412 0.23529412 0.25490196
v 0.47999999 -0.23500000 -0.48750001 0.23529412 0.23529412 0.25490196
v 0.47999999 -0.23500000 -0.44250000 0.23529412 0.23529412 0.25490196
v 0.47999999 -0.11500000 -0.48750001 0.23529412 0.23529412 0.25490196
v 0.47999999 -0.11500000 -0.44250000 0.23529412 0.23529412 0.25490196
f 18 20 17
f 21 18 17
f 17 20 19
f 19 21 17
f 18 24 20
f 22 18 21
f 22 24 18
f 20 24 19
f 23 21 19
f 19 24 23
f 23 22 21
f 24 22 23

o P1_PRIME_EXTERNAL_HEAVY_LIFT_SHAFT
v 0.47000000 -0.27000001 -0.64999998 0.27450980 0.27450980 0.29411765
v 0.47000000 -0.27000001 -0.47999999 0.27450980 0.27450980 0.29411765
v 0.47000000 0.41999999 -0.64999998 0.27450980 0.27450980 0.29411765
v 0.47000000 0.41999999 -0.47999999 0.27450980 0.27450980 0.29411765
v 0.63000000 -0.27000001 -0.64999998 0.27450980 0.27450980 0.29411765
v 0.63000000 -0.27000001 -0.47999999 0.27450980 0.27450980 0.29411765
v 0.63000000 0.41999999 -0.64999998 0.27450980 0.27450980 0.29411765
v 0.63000000 0.41999999 -0.47999999 0.27450980 0.27450980 0.29411765
f 26 28 25
f 29 26 25
f 25 28 27
f 27 29 25
f 26 32 28
f 30 26 29
f 30 32 26
f 28 32 27
f 31 29 27
f 27 32 31
f 31 30 29
f 32 30 31

o P1_B3_HEAVY_LIFT_PLATFORM
v 0.47749999 -0.23250000 -0.64249998 0.49019608 0.49019608 0.50980392
v 0.47749999 -0.23250000 -0.48750001 0.49019608 0.49019608 0.50980392
v 0.47749999 -0.20750000 -0.64249998 0.49019608 0.49019608 0.50980392
v 0.47749999 -0.20750000 -0.48750001 0.49019608 0.49019608 0.50980392
v 0.62250000 -0.23250000 -0.64249998 0.49019608 0.49019608 0.50980392
v 0.62250000 -0.23250000 -0.48750001 0.49019608 0.49019608 0.50980392
v 0.62250000 -0.20750000 -0.64249998 0.49019608 0.49019608 0.50980392
v 0.62250000 -0.20750000 -0.48750001 0.49019608 0.49019608 0.50980392
f 34 36 33
f 37 34 33
f 33 36 35
f 35 37 33
f 34 40 36
f 38 34 37
f 38 40 34
f 36 40 35
f 39 37 35
f 35 40 39
f 39 38 37
f 40 38 39

o P1_L3_HEAVY_LIFT_PLATFORM
v 0.47749999 0.38749999 -0.64249998 0.49019608 0.49019608 0.50980392
v 0.47749999 0.38749999 -0.48750001 0.49019608 0.49019608 0.50980392
v 0.47749999 0.41249999 -0.64249998 0.49019608 0.49019608 0.50980392
v 0.47749999 0.41249999 -0.48750001 0.49019608 0.49019608 0.50980392
v 0.62250000 0.38749999 -0.64249998 0.49019608 0.49019608 0.50980392
v 0.62250000 0.38749999 -0.48750001 0.49019608 0.49019608 0.50980392
v 0.62250000 0.41249999 -0.64249998 0.49019608 0.49019608 0.50980392
v 0.62250000 0.41249999 -0.48750001 0.49019608 0.49019608 0.50980392
f 42 44 41
f 45 42 41
f 41 44 43
f 43 45 41
f 42 48 44
f 46 42 45
f 46 48 42
f 44 48 43
f 47 45 43
f 43 48 47
f 47 46 45
f 48 46 47

o L3_PRIME_EXTERNAL_LIFT_APRON
v 0.43000001 0.39399999 -0.55000001 0.41176471 0.41176471 0.43137255
v 0.43000001 0.39399999 -0.38999999 0.41176471 0.41176471 0.43137255
v 0.43000001 0.41600001 -0.55000001 0.41176471 0.41176471 0.43137255
v 0.43000001 0.41600001 -0.38999999 0.41176471 0.41176471 0.43137255
v 0.67000002 0.39399999 -0.55000001 0.41176471 0.41176471 0.43137255
v 0.67000002 0.39399999 -0.38999999 0.41176471 0.41176471 0.43137255
v 0.67000002 0.41600001 -0.55000001 0.41176471 0.41176471 0.43137255
v 0.67000002 0.41600001 -0.38999999 0.41176471 0.41176471 0.43137255
f 50 52 49
f 53 50 49
f 49 52 51
f 51 53 49
f 50 56 52
f 54 50 53
f 54 56 50
f 52 56 51
f 55 53 51
f 51 56 55
f 55 54 53
f 56 54 55

o L3_PRIME_EMERGENCY_MERGE_LANE
v 0.19000000 0.40099999 -0.45500001 0.45098039 0.45098039 0.47058824
v 0.19000000 0.40099999 -0.35499999 0.45098039 0.45098039 0.47058824
v 0.19000000 0.41900000 -0.45500001 0.45098039 0.45098039 0.47058824
v 0.19000000 0.41900000 -0.35499999 0.45098039 0.45098039 0.47058824
v 0.52999997 0.40099999 -0.45500001 0.45098039 0.45098039 0.47058824
v 0.52999997 0.40099999 -0.35499999 0.45098039 0.45098039 0.47058824
v 0.52999997 0.41900000 -0.45500001 0.45098039 0.45098039 0.47058824
v 0.52999997 0.41900000 -0.35499999 0.45098039 0.45098039 0.47058824
f 58 60 57
f 61 58 57
f 57 60 59
f 59 61 57
f 58 64 60
f 62 58 61
f 62 64 58
f 60 64 59
f 63 61 59
f 59 64 63
f 63 62 61
f 64 62 63

o L3_PRIME_FLUSH_DECK_TRANSITION
v 0.47000000 0.39899999 -0.51999998 0.19607843 0.21176471 0.22745098
v 0.47000000 0.39899999 -0.44999999 0.19607843 0.21176471 0.22745098
v 0.47000000 0.41700000 -0.51999998 0.19607843 0.21176471 0.22745098
v 0.47000000 0.41700000 -0.44999999 0.19607843 0.21176471 0.22745098
v 0.63000000 0.39899999 -0.51999998 0.19607843 0.21176471 0.22745098
v 0.63000000 0.39899999 -0.44999999 0.19607843 0.21176471 0.22745098
v 0.63000000 0.41700000 -0.51999998 0.19607843 0.21176471 0.22745098
v 0.63000000 0.41700000 -0.44999999 0.19607843 0.21176471 0.22745098
f 66 68 65
f 69 66 65
f 65 68 67
f 67 69 65
f 66 72 68
f 70 66 69
f 70 72 66
f 68 72 67
f 71 69 67
f 67 72 71
f 71 70 69
f 72 70 71

o PRIME_DIRECT_SURFACE_ESCAPE_RAMP
v 0.36083186 -0.21036842 -0.48899555 0.45098039 0.45098039 0.47058824
v 0.36083186 0.14963157 -2.14899564 0.45098039 0.45098039 0.47058824
v 0.35553333 -0.18649140 -0.48381740 0.45098039 0.45098039 0.47058824
v 0.35553333 0.17350860 -2.14381742 0.45098039 0.45098039 0.47058824
v 0.20446666 -0.24350859 -0.49618259 0.45098039 0.45098039 0.47058824
v 0.20446666 0.11649141 -2.15618253 0.45098039 0.45098039 0.47058824
v 0.19916815 -0.21963157 -0.49100444 0.45098039 0.45098039 0.47058824
v 0.19916815 0.14036843 -2.15100455 0.45098039 0.45098039 0.47058824
f 74 76 73
f 77 74 73
f 73 76 75
f 75 77 73
f 74 80 76
f 78 74 77
f 78 80 74
f 76 80 75
f 79 77 75
f 75 80 79
f 79 78 77
f 80 78 79

o PRIME_ESCAPE_RAMP_WALL_W
v 0.21939258 -0.23588993 -0.49995202 0.27450980 0.27450980 0.29411765
v 0.21939258 0.12411008 -2.15995193 0.27450980 0.27450980 0.29411765
v 0.19819850 -0.14038181 -0.47923943 0.27450980 0.27450980 0.29411765
v 0.19819850 0.21961819 -2.13923931 0.27450980 0.27450980 0.29411765
v 0.20180149 -0.23961818 -0.50076056 0.27450980 0.27450980 0.29411765
v 0.20180149 0.12038181 -2.16076064 0.27450980 0.27450980 0.29411765
v 0.18060742 -0.14411008 -0.48004797 0.27450980 0.27450980 0.29411765
v 0.18060742 0.21588992 -2.14004803 0.27450980 0.27450980 0.29411765
f 82 84 81
f 85 82 81
f 81 84 83
f 83 85 81
f 82 88 84
f 86 82 85
f 86 88 82
f 84 88 83
f 87 85 83
f 83 88 87
f 87 86 85
f 88 86 87

o PRIME_ESCAPE_RAMP_WALL_E
v 0.37939259 -0.23588993 -0.49995202 0.27450980 0.27450980 0.29411765
v 0.37939259 0.12411008 -2.15995193 0.27450980 0.27450980 0.29411765
v 0.35819849 -0.14038181 -0.47923943 0.27450980 0.27450980 0.29411765
v 0.35819849 0.21961819 -2.13923931 0.27450980 0.27450980 0.29411765
v 0.36180151 -0.23961818 -0.50076056 0.27450980 0.27450980 0.29411765
v 0.36180151 0.12038181 -2.16076064 0.27450980 0.27450980 0.29411765
v 0.34060740 -0.14411008 -0.48004797 0.27450980 0.27450980 0.29411765
v 0.34060740 0.21588992 -2.14004803 0.27450980 0.27450980 0.29411765
f 90 92 89
f 93 90 89
f 89 92 91
f 91 93 89
f 90 96 92
f 94 90 93
f 94 96 90
f 92 96 91
f 95 93 91
f 91 96 95
f 95 94 93
f 96 94 95

o PRIME_PERIMETER_BYPASS_PORTAL
v 0.16000000 0.12000000 -1.37500000 0.25490196 0.25490196 0.27450980
v 0.16000000 0.12000000 -1.32500005 0.25490196 0.25490196 0.27450980
v 0.16000000 0.25999999 -1.37500000 0.25490196 0.25490196 0.27450980
v 0.16000000 0.25999999 -1.32500005 0.25490196 0.25490196 0.27450980
v 0.40000001 0.12000000 -1.37500000 0.25490196 0.25490196 0.27450980
v 0.40000001 0.12000000 -1.32500005 0.25490196 0.25490196 0.27450980
v 0.40000001 0.25999999 -1.37500000 0.25490196 0.25490196 0.27450980
v 0.40000001 0.25999999 -1.32500005 0.25490196 0.25490196 0.27450980
f 98 100 97
f 101 98 97
f 97 100 99
f 99 101 97
f 98 104 100
f 102 98 101
f 102 104 98
f 100 104 99
f 103 101 99
f 99 104 103
f 103 102 101
f 104 102 103

o PRIME_OFFSITE_SURFACE_ESCAPE_STRIP
v 0.19000000 0.13249999 -4.44999981 0.43137255 0.43137255 0.45098039
v 0.19000000 0.13249999 -2.15000010 0.43137255 0.43137255 0.45098039
v 0.19000000 0.15750000 -4.44999981 0.43137255 0.43137255 0.45098039
v 0.19000000 0.15750000 -2.15000010 0.43137255 0.43137255 0.45098039
v 0.37000000 0.13249999 -4.44999981 0.43137255 0.43137255 0.45098039
v 0.37000000 0.13249999 -2.15000010 0.43137255 0.43137255 0.45098039
v 0.37000000 0.15750000 -4.44999981 0.43137255 0.43137255 0.45098039
v 0.37000000 0.15750000 -2.15000010 0.43137255 0.43137255 0.45098039
f 106 108 105
f 109 106 105
f 105 108 107
f 107 109 105
f 106 112 108
f 110 106 109
f 110 112 106
f 108 112 107
f 111 109 107
f 107 112 111
f 111 110 109
f 112 110 111

o PRIME_OFFSITE_MARSHALLING_APRON
v 0.07000000 0.13249999 -4.61000013 0.41176471 0.41176471 0.43137255
v 0.07000000 0.13249999 -4.34999990 0.41176471 0.41176471 0.43137255
v 0.07000000 0.15750000 -4.61000013 0.41176471 0.41176471 0.43137255
v 0.07000000 0.15750000 -4.34999990 0.41176471 0.41176471 0.43137255
v 0.49000001 0.13249999 -4.61000013 0.41176471 0.41176471 0.43137255
v 0.49000001 0.13249999 -4.34999990 0.41176471 0.41176471 0.43137255
v 0.49000001 0.15750000 -4.61000013 0.41176471 0.41176471 0.43137255
v 0.49000001 0.15750000 -4.34999990 0.41176471 0.41176471 0.43137255
f 114 116 113
f 117 114 113
f 113 116 115
f 115 117 113
f 114 120 116
f 118 114 117
f 118 120 114
f 116 120 115
f 119 117 115
f 115 120 119
f 119 118 117
f 120 118 119
