0
SECTION
2
HEADER
0
ENDSEC
0
SECTION
2
TABLES
0
ENDSEC
0
SECTION
2
ENTITIES
0
LWPOLYLINE
8
A-ROOF
90
5
70
1
10
0
20
0
10
72
20
0
10
72
20
72
10
0
20
72
10
0
20
0
0
LINE
8
A-GRID
10
0
20
0
30
0
11
0
21
72
31
0
0
LINE
8
A-GRID
10
0
20
0
30
0
11
72
21
0
31
0
0
LINE
8
A-GRID
10
18
20
0
30
0
11
18
21
72
31
0
0
LINE
8
A-GRID
10
0
20
18
30
0
11
72
21
18
31
0
0
LINE
8
A-GRID
10
36
20
0
30
0
11
36
21
72
31
0
0
LINE
8
A-GRID
10
0
20
36
30
0
11
72
21
36
31
0
0
LINE
8
A-GRID
10
54
20
0
30
0
11
54
21
72
31
0
0
LINE
8
A-GRID
10
0
20
54
30
0
11
72
21
54
31
0
0
LINE
8
A-GRID
10
72
20
0
30
0
11
72
21
72
31
0
0
LINE
8
A-GRID
10
0
20
72
30
0
11
72
21
72
31
0
0
LWPOLYLINE
8
A-MOBILITY
90
5
70
1
10
10
20
8
10
48
20
8
10
48
20
46
10
10
20
46
10
10
20
8
0
LWPOLYLINE
8
A-EDGE
90
5
70
1
10
12
20
0
10
46
20
0
10
46
20
6
10
12
20
6
10
12
20
0
0
LWPOLYLINE
8
A-SERVICE
90
5
70
1
10
28
20
60
10
60
20
60
10
60
20
72
10
28
20
72
10
28
20
60
0
LWPOLYLINE
8
A-CORE
90
5
70
1
10
0
20
54
10
12
20
54
10
12
20
72
10
0
20
72
10
0
20
54
0
LWPOLYLINE
8
A-CORE
90
5
70
1
10
60
20
54
10
72
20
54
10
72
20
72
10
60
20
72
10
60
20
54
0
LWPOLYLINE
8
A-CORE
90
5
70
1
10
54
20
34
10
62
20
34
10
62
20
44
10
54
20
44
10
54
20
34
0
LWPOLYLINE
8
A-CORE
90
5
70
1
10
50
20
30
10
64
20
30
10
64
20
48
10
50
20
48
10
50
20
30
0
LWPOLYLINE
8
A-SERVICE
90
5
70
1
10
50
20
66
10
60
20
66
10
60
20
72
10
50
20
72
10
50
20
66
0
LWPOLYLINE
8
A-ANNO
90
5
70
1
10
46
20
24
10
50
20
24
10
50
20
30
10
46
20
30
10
46
20
24
0
TEXT
8
A-ANNO
10
11
20
27
30
0
40
0.6
1
CANDIDATE MOBILITY ZONE - FINAL HELIPAD/VTOL GEOMETRY PENDING FEASIBILITY
0
TEXT
8
A-ANNO
10
13
20
3
30
0
40
0.5
1
CITY OVERLOOK
0
TEXT
8
A-ANNO
10
47
20
27
30
0
40
0.4
1
ECOSYSTEM ROUTING BEACON
0
TEXT
8
A-ANNO
10
1
20
-3
30
0
40
0.65
1
LEVEL 7 = ECOSYSTEM PLANE / CROSS-SITE DEPARTURE + ARRIVAL
0
TEXT
8
A-ANNO
10
1
20
-4.5
30
0
40
0.55
1
NO FIXED-WING RUNWAY / NO OPERATIONAL HELIPAD CLAIM
0
TEXT
8
A-ANNO
10
1
20
-6
30
0
40
0.7
1
SCHEMATIC - NOT FOR CONSTRUCTION OR AVIATION APPROVAL
0
LINE
8
A-CIRC
10
55
20
32
30
0
11
49
21
29
31
0
0
LINE
8
A-CIRC
10
48
20
24
30
0
11
40
21
12
31
0
0
LINE
8
A-CIRC
10
47
20
25
30
0
11
32
21
5
31
0
0
CIRCLE
8
A-ANNO
10
36
20
28
30
0
40
0.5
0
TEXT
8
A-ANNO
10
36.8
20
28
30
0
40
0.45
1
360 CAMERA
0
ENDSEC
0
EOF