0
SECTION
2
HEADER
0
ENDSEC
0
SECTION
2
ENTITIES
0
LINE
8
A-WALL
10
0
20
0
30
0
11
72
21
0
31
0
0
LINE
8
A-WALL
10
72
20
0
30
0
11
72
21
72
31
0
0
LINE
8
A-WALL
10
72
20
72
30
0
11
0
21
72
31
0
0
LINE
8
A-WALL
10
0
20
72
30
0
11
0
21
0
31
0
0
LINE
8
A-GRID
10
0
20
0
30
0
11
0
21
72
31
0
0
LINE
8
A-GRID
10
0
20
0
30
0
11
72
21
0
31
0
0
LINE
8
A-GRID
10
18
20
0
30
0
11
18
21
72
31
0
0
LINE
8
A-GRID
10
0
20
18
30
0
11
72
21
18
31
0
0
LINE
8
A-GRID
10
36
20
0
30
0
11
36
21
72
31
0
0
LINE
8
A-GRID
10
0
20
36
30
0
11
72
21
36
31
0
0
LINE
8
A-GRID
10
54
20
0
30
0
11
54
21
72
31
0
0
LINE
8
A-GRID
10
0
20
54
30
0
11
72
21
54
31
0
0
LINE
8
A-GRID
10
72
20
0
30
0
11
72
21
72
31
0
0
LINE
8
A-GRID
10
0
20
72
30
0
11
72
21
72
31
0
0
LINE
8
A-WALL
10
2
20
4
30
0
11
14
21
4
31
0
0
LINE
8
A-WALL
10
14
20
4
30
0
11
14
21
16
31
0
0
LINE
8
A-WALL
10
14
20
16
30
0
11
2
21
16
31
0
0
LINE
8
A-WALL
10
2
20
16
30
0
11
2
21
4
31
0
0
TEXT
8
A-ANNO
10
8
20
10
30
0
40
0.45
1
INTERVIEW A
0
LINE
8
A-WALL
10
16
20
4
30
0
11
28
21
4
31
0
0
LINE
8
A-WALL
10
28
20
4
30
0
11
28
21
16
31
0
0
LINE
8
A-WALL
10
28
20
16
30
0
11
16
21
16
31
0
0
LINE
8
A-WALL
10
16
20
16
30
0
11
16
21
4
31
0
0
TEXT
8
A-ANNO
10
22
20
10
30
0
40
0.45
1
INTERVIEW B
0
LINE
8
A-CORE
10
0
20
54
30
0
11
12
21
54
31
0
0
LINE
8
A-CORE
10
12
20
54
30
0
11
12
21
72
31
0
0
LINE
8
A-CORE
10
12
20
72
30
0
11
0
21
72
31
0
0
LINE
8
A-CORE
10
0
20
72
30
0
11
0
21
54
31
0
0
TEXT
8
A-ANNO
10
6
20
63
30
0
40
0.45
1
STAIR B
0
LINE
8
A-WALL
10
12
20
60
30
0
11
20
21
60
31
0
0
LINE
8
A-WALL
10
20
20
60
30
0
11
20
21
70
31
0
0
LINE
8
A-WALL
10
20
20
70
30
0
11
12
21
70
31
0
0
LINE
8
A-WALL
10
12
20
70
30
0
11
12
21
60
31
0
0
TEXT
8
A-ANNO
10
16
20
65
30
0
40
0.45
1
RESTROOM A
0
LINE
8
A-WALL
10
20
20
60
30
0
11
28
21
60
31
0
0
LINE
8
A-WALL
10
28
20
60
30
0
11
28
21
70
31
0
0
LINE
8
A-WALL
10
28
20
70
30
0
11
20
21
70
31
0
0
LINE
8
A-WALL
10
20
20
70
30
0
11
20
21
60
31
0
0
TEXT
8
A-ANNO
10
24
20
65
30
0
40
0.45
1
RESTROOM B
0
LINE
8
A-WALL
10
28
20
60
30
0
11
40
21
60
31
0
0
LINE
8
A-WALL
10
40
20
60
30
0
11
40
21
72
31
0
0
LINE
8
A-WALL
10
40
20
72
30
0
11
28
21
72
31
0
0
LINE
8
A-WALL
10
28
20
72
30
0
11
28
21
60
31
0
0
TEXT
8
A-ANNO
10
34
20
66
30
0
40
0.45
1
FELLOWSHIP SUPPORT/RECORDS
0
LINE
8
A-WALL
10
40
20
60
30
0
11
50
21
60
31
0
0
LINE
8
A-WALL
10
50
20
60
30
0
11
50
21
72
31
0
0
LINE
8
A-WALL
10
50
20
72
30
0
11
40
21
72
31
0
0
LINE
8
A-WALL
10
40
20
72
30
0
11
40
21
60
31
0
0
TEXT
8
A-ANNO
10
45
20
66
30
0
40
0.45
1
NETWORK/IT
0
LINE
8
A-WALL
10
50
20
60
30
0
11
54
21
60
31
0
0
LINE
8
A-WALL
10
54
20
60
30
0
11
54
21
66
31
0
0
LINE
8
A-WALL
10
54
20
66
30
0
11
50
21
66
31
0
0
LINE
8
A-WALL
10
50
20
66
30
0
11
50
21
60
31
0
0
TEXT
8
A-ANNO
10
52
20
63
30
0
40
0.45
1
JANITOR
0
LINE
8
A-WALL
10
50
20
66
30
0
11
60
21
66
31
0
0
LINE
8
A-WALL
10
60
20
66
30
0
11
60
21
72
31
0
0
LINE
8
A-WALL
10
60
20
72
30
0
11
50
21
72
31
0
0
LINE
8
A-WALL
10
50
20
72
30
0
11
50
21
66
31
0
0
TEXT
8
A-ANNO
10
55
20
69
30
0
40
0.45
1
MEP/RISERS
0
LINE
8
A-CORE
10
60
20
54
30
0
11
72
21
54
31
0
0
LINE
8
A-CORE
10
72
20
54
30
0
11
72
21
72
31
0
0
LINE
8
A-CORE
10
72
20
72
30
0
11
60
21
72
31
0
0
LINE
8
A-CORE
10
60
20
72
30
0
11
60
21
54
31
0
0
TEXT
8
A-ANNO
10
66
20
63
30
0
40
0.45
1
STAIR A
0
LINE
8
A-CORE
10
54
20
34
30
0
11
62
21
34
31
0
0
LINE
8
A-CORE
10
62
20
34
30
0
11
62
21
44
31
0
0
LINE
8
A-CORE
10
62
20
44
30
0
11
54
21
44
31
0
0
LINE
8
A-CORE
10
54
20
44
30
0
11
54
21
34
31
0
0
TEXT
8
A-ANNO
10
58
20
39
30
0
40
0.45
1
ELEVATOR
0
LINE
8
A-WALL
10
22
20
50
30
0
11
50
21
50
31
0
0
LINE
8
A-WALL
10
50
20
50
30
0
11
50
21
54
31
0
0
LINE
8
A-WALL
10
50
20
54
30
0
11
22
21
54
31
0
0
LINE
8
A-WALL
10
22
20
54
30
0
11
22
21
50
31
0
0
LINE
8
A-FURN
10
28
20
39
30
0
11
44
21
39
31
0
0
LINE
8
A-FURN
10
44
20
39
30
0
11
44
21
43
31
0
0
LINE
8
A-FURN
10
44
20
43
30
0
11
28
21
43
31
0
0
LINE
8
A-FURN
10
28
20
43
30
0
11
28
21
39
31
0
0
LINE
8
A-FURN
10
2
20
18
30
0
11
18
21
18
31
0
0
LINE
8
A-FURN
10
18
20
18
30
0
11
18
21
34
31
0
0
LINE
8
A-FURN
10
18
20
34
30
0
11
2
21
34
31
0
0
LINE
8
A-FURN
10
2
20
34
30
0
11
2
21
18
31
0
0
LINE
8
A-FURN
10
49
20
24
30
0
11
51
21
24
31
0
0
LINE
8
A-FURN
10
51
20
24
30
0
11
51
21
29
31
0
0
LINE
8
A-FURN
10
51
20
29
30
0
11
49
21
29
31
0
0
LINE
8
A-FURN
10
49
20
29
30
0
11
49
21
24
31
0
0
LINE
8
A-GLAZ
10
0
20
0
30
0
11
72
21
0
31
0
0
CIRCLE
8
A-ANNO
10
36
20
28
30
0
40
0.5
0
TEXT
8
A-ANNO
10
36.8
20
28
30
0
40
0.5
1
360 CAMERA
0
TEXT
8
A-ANNO
10
2
20
-3
30
0
40
0.65
1
FLOOR 3 - NO EXTERIOR DOORS / NO BALCONY / NO TERRACE
0
TEXT
8
A-ANNO
10
2
20
-5
30
0
40
0.75
1
SCHEMATIC - NOT FOR CONSTRUCTION
0
ENDSEC
0
EOF
